<svg width="96" height="96" xmlns="http://www.w3.org/2000/svg" xmlns:xlink="http://www.w3.org/1999/xlink" xml:space="preserve" overflow="hidden"><defs><clipPath id="clip0"><rect x="0" y="0" width="96" height="96"/></clipPath></defs><g clip-path="url(#clip0)"><path d="M82.218 32.7772C80.8661 28.5983 77.8828 25.1431 73.9457 23.1964 73.9421 23.1947 73.94 23.1909 73.9404 23.187 73.9788 22.7964 74.0004 22.4006 74.0004 22 74.0057 15.3778 68.6416 10.0051 62.0194 9.99978 59.9484 9.99812 57.9123 10.5329 56.1094 11.552 52.5586 5.96832 45.1536 4.32037 39.5699 7.8712 36.9818 9.51705 35.1234 12.0928 34.3776 15.0678 28.6208 11.265 20.8712 12.849 17.0684 18.6058 14.25 22.8724 14.3163 28.4258 17.2358 32.6239 9.2937 34.9685 4.75606 43.3076 7.1007 51.2497 9.44534 59.1918 17.7844 63.7294 25.7265 61.3848 26.2693 61.2245 26.8025 61.0337 27.3237 60.8132L30.1826 63.0459C32.0006 64.3675 33.744 65.7888 35.4048 67.3032L36.3325 68.1196C39.2946 70.7099 40.9957 74.4518 41 78.3867L41 86C41 87.6569 39.6569 89 38 89L36.0536 89C35.5512 88.9888 35.1129 89.3393 35.0136 89.832 34.9212 90.3769 35.288 90.8935 35.8329 90.9859 35.8881 90.9953 35.944 91 36 91L54.9464 91C55.4488 91.0112 55.8871 90.6607 55.9864 90.168 56.0788 89.6231 55.712 89.1065 55.1671 89.0141 55.1119 89.0047 55.056 89 55 89L53 89C51.3431 89 50 87.6569 50 86L50 77.4316C49.9953 73.4048 52.2862 69.7274 55.9028 67.9565 60.9292 65.4565 67.542 61.3848 71.0228 57.4531L73.215 54.9968C79.2864 57.6422 86.3527 54.8649 88.9981 48.7935 91.6435 42.7221 88.8661 35.6558 82.7948 33.0104 82.6047 32.9276 82.4124 32.8497 82.2183 32.7768ZM69.5278 56.124C66.231 59.8481 59.6478 63.8608 55.0122 66.1655 50.7142 68.2726 47.9928 72.6449 48 77.4316L48 86C48.0038 87.0854 48.3642 88.1394 49.0256 89L41.9744 89C42.6358 88.1394 42.9962 87.0854 43 86L43 78.3867C42.9957 73.8757 41.0462 69.5857 37.6509 66.6157L36.7275 65.8032C35.0278 64.2528 33.2431 62.798 31.3818 61.4458L29.2838 59.8065C29.9945 59.3751 30.6681 58.8856 31.2979 58.3429 34.578 60.2973 37.5939 62.6642 40.272 65.3857L42 67.2217 42 64.7C42.0238 61.3502 41.4252 58.025 40.2347 54.8938 40.8206 54.9632 41.41 54.9987 42 55 42.4652 55 42.9235 54.9724 43.3781 54.9321 44.0738 57.0401 44.5526 59.2137 44.8071 61.4189L45.3623 66.0518 46.7544 61.5981C47.7668 58.3941 49.0786 55.2925 50.6725 52.3345 52.195 51.3004 53.5231 50.0057 54.5957 48.51 54.9803 48.9429 55.3876 49.3552 55.8157 49.7451 52.6123 54.2051 50.4294 60.3351 49.0468 64.6978L48.1039 67.6719 50.6 65.8C53.4036 63.9153 56.3635 62.2742 59.4472 60.8947 62.8078 59.3436 65.7126 56.9536 67.8819 53.9547 68.8267 53.8832 69.7638 53.7314 70.6829 53.5012L70.691 53.5029C70.924 53.6829 71.1652 53.8515 71.411 54.014ZM35.0109 53.4749C35.0494 53.3906 35.07 53.3425 35.07 53.3425 35.07 53.3425 35.56 53.5676 35.6383 53.6032 36.3303 53.9154 37.0441 54.1768 37.774 54.3853 37.8232 54.3995 37.8462 54.4038 37.8462 54.4038 38.9798 56.8666 39.6716 59.5095 39.89 62.2119 37.6701 60.2356 35.2826 58.4559 32.7545 56.8929 33.6586 55.8615 34.4177 54.7116 35.0109 53.4749ZM45.3789 54.6221C46.1427 54.453 46.8925 54.2256 47.6216 53.9421 47.0942 55.0572 46.5939 56.2011 46.1382 57.3543 45.9237 56.4058 45.6625 55.5021 45.3789 54.6221ZM65.3616 53.924C63.4993 56.1227 61.18 57.889 58.5654 59.1 56.5698 60.0629 54.0488 61.28 51.8491 62.5868 53.1547 58.4876 55.0126 54.5853 57.3716 50.9876 59.7231 52.6658 62.483 53.6801 65.3616 53.924ZM79.3639 53.91C76.7116 54.277 74.0234 53.5579 71.9086 51.9156L71.1462 51.3279 71.1376 51.3261 70.2036 51.5591C65.0512 52.8791 59.5945 51.1871 56.0927 47.1838L55.7627 46.8117 56.2215 46.1871C56.5277 45.7887 56.5038 45.228 56.1647 44.8571 55.7803 44.4606 55.1472 44.4508 54.7507 44.8352 54.7105 44.8741 54.6738 44.9163 54.6407 44.9613L53.525 46.5061C53.525 46.5061 53.0329 47.24 52.9715 47.343 52.9715 47.343 52.9248 47.4079 52.9015 47.4392 50.3609 50.9235 46.3122 52.9888 42 53 39.9051 53.001 37.8395 52.5089 35.97 51.5637 35.97 51.5637 35.3742 51.3153 34.7813 51.0137 34.4741 50.8577 34.1303 50.653 34.1303 50.653L33.5403 50.2978C33.1156 50.0291 32.5594 50.1036 32.2203 50.4745 31.86 50.8937 31.9077 51.5256 32.3269 51.886 32.3695 51.9226 32.4151 51.9555 32.4632 51.9845L33.2769 52.4745 33.2634 52.5032C30.2236 59.0032 22.49 61.8082 15.9901 58.7684 9.49009 55.7286 6.68507 47.995 9.72489 41.495 11.2994 38.1283 14.2403 35.5971 17.8039 34.5415L18.5668 34.3154 19.7554 35.6411C20.1097 36.0364 20.7112 36.086 21.1254 35.754 21.5591 35.3702 21.5996 34.7074 21.2157 34.2737 21.2103 34.2675 21.2047 34.2614 21.1991 34.2553L19.4491 32.3035 19.02 31.687C17.8957 30.1128 17.2098 28.2681 17.0327 26.3418 16.5749 20.5526 20.8968 15.4884 26.686 15.0306 27.5666 14.9609 28.4525 15.0025 29.3227 15.1544 30.7902 15.4228 32.1856 15.994 33.42 16.8318L33.98 17.2018 33.7947 18.97C33.7303 19.5187 34.119 20.0172 34.6669 20.0883 34.7073 20.0928 34.7479 20.0951 34.7886 20.0953 35.2999 20.0946 35.7283 19.7083 35.7817 19.1998L36.0562 16.585 36.2585 15.7815C37.2645 11.597 40.7942 8.49787 45.0736 8.0415 48.805 7.6908 52.4177 9.46308 54.4242 12.6286L54.4371 12.6486 53.0953 13.4816C52.6408 13.7505 52.4604 14.3175 52.6759 14.7996 52.9181 15.2959 53.5168 15.502 54.0132 15.2597 54.0436 15.2449 54.0733 15.2285 54.1021 15.2106L56.5221 13.6439C56.6194 13.5834 56.9977 13.3463 56.9977 13.3463 61.758 10.571 67.8668 12.1801 70.6422 16.9404 71.5374 18.4759 72.0061 20.2226 72 22 72 22.3217 71.983 22.6571 71.95 22.9969L71.8148 24.3658C71.8144 24.37 71.8166 24.3739 71.8203 24.3758L73.0531 24.9858C76.1394 26.5209 78.5699 29.1158 79.9002 32.2958L79.234 32.1282C78.7493 31.9946 78.2384 32.2274 78.0213 32.6809 77.7986 33.1863 78.0277 33.7765 78.5331 33.9993 78.5847 34.022 78.6382 34.0404 78.6929 34.0541L82.1915 34.9341C87.2031 37.2483 89.3897 43.187 87.0754 48.1986 85.6467 51.2926 82.74 53.4454 79.3639 53.91Z" fill="#4472C4"/></g></svg>