<?xml version="1.0" encoding="utf-8"?>
<!-- Svg Vector Icons : http://www.onlinewebfonts.com/icon -->
<!DOCTYPE svg PUBLIC "-//W3C//DTD SVG 1.1//EN" "http://www.w3.org/Graphics/SVG/1.1/DTD/svg11.dtd">
<svg version="1.1" xmlns="http://www.w3.org/2000/svg" xmlns:xlink="http://www.w3.org/1999/xlink" x="0px" y="0px" viewBox="0 0 256 256" enable-background="new 0 0 256 256" xml:space="preserve">
<metadata> Svg Vector Icons : http://www.onlinewebfonts.com/icon </metadata>
<g><g><path fill="#000000" d="M190,44.2c7.3,5.3,13.7,11.3,19.3,18c5.6,6.7,10.5,13.9,14.5,21.7c4,7.8,7.1,16,9.2,24.7c2.1,8.7,3.2,17.5,3.2,26.4c0,15.4-2.9,29.8-8.6,43.3c-5.7,13.5-13.5,25.2-23.2,35.2c-9.8,10-21.2,17.9-34.3,23.8c-13.2,5.9-27.2,8.8-42.2,8.8c-14.8,0-28.8-2.9-41.9-8.8c-13.1-5.9-24.6-13.8-34.4-23.8c-9.8-10-17.6-21.7-23.2-35.2c-5.6-13.5-8.5-27.9-8.5-43.3c0-8.8,1-17.4,3-25.8s4.9-16.4,8.6-24c3.7-7.6,8.3-14.7,13.8-21.3c5.5-6.6,11.6-12.6,18.4-17.8c3.5-2.6,7.4-3.6,11.5-3c4.1,0.7,7.4,2.7,10,6.2c2.6,3.5,3.5,7.3,2.9,11.7c-0.6,4.3-2.6,7.8-6,10.4c-10.2,7.6-17.9,16.9-23.3,28c-5.4,11.1-8.1,23-8.1,35.7c0,10.9,2,21.2,6,30.9c4,9.7,9.5,18.1,16.6,25.3c7,7.2,15.2,12.9,24.7,17.1c9.4,4.2,19.5,6.3,30.1,6.3c10.6,0,20.7-2.1,30.1-6.3c9.4-4.2,17.7-9.9,24.7-17.1c7-7.2,12.6-15.6,16.7-25.3c4.1-9.7,6.2-20,6.2-30.9c0-12.9-2.9-25.1-8.7-36.6c-5.8-11.5-13.9-21-24.4-28.4c-3.5-2.5-5.7-5.9-6.4-10.2c-0.7-4.3,0.1-8.3,2.5-11.9c2.4-3.5,5.7-5.6,9.9-6.3C182.6,40.9,186.4,41.7,190,44.2L190,44.2z M127.9,135.7c-4.2,0-7.8-1.5-10.8-4.6c-3-3.1-4.5-6.7-4.5-11V25.9c0-4.3,1.5-8,4.5-11.1c3-3.1,6.6-4.7,10.8-4.7c4.4,0,8,1.6,11,4.7c3,3.1,4.5,6.9,4.5,11.1v94.2c0,4.3-1.5,8-4.5,11C135.9,134.2,132.2,135.7,127.9,135.7L127.9,135.7z"/></g></g>
</svg>