<svg width="41" height="40" viewBox="0 0 41 40" fill="none" xmlns="http://www.w3.org/2000/svg">
<path d="M9.25171 8.125C9.1281 8.125 9.00726 8.16166 8.90448 8.23033C8.8017 8.29901 8.72159 8.39662 8.67428 8.51082C8.62698 8.62503 8.6146 8.75069 8.63872 8.87193C8.66283 8.99317 8.72236 9.10453 8.80977 9.19194C8.89718 9.27935 9.00854 9.33888 9.12978 9.36299C9.25102 9.38711 9.37668 9.37473 9.49089 9.32742C9.60509 9.28012 9.7027 9.20001 9.77138 9.09723C9.84005 8.99445 9.87671 8.87361 9.87671 8.75C9.87671 8.58424 9.81086 8.42527 9.69365 8.30806C9.57644 8.19085 9.41747 8.125 9.25171 8.125V8.125Z" stroke="#40A3FF" stroke-width="2.5" stroke-linecap="round" stroke-linejoin="round"/>
<path d="M9.25171 23.125C9.1281 23.125 9.00726 23.1617 8.90448 23.2303C8.8017 23.299 8.72159 23.3966 8.67428 23.5108C8.62698 23.625 8.6146 23.7507 8.63872 23.8719C8.66283 23.9932 8.72236 24.1045 8.80977 24.1919C8.89718 24.2794 9.00854 24.3389 9.12978 24.363C9.25102 24.3871 9.37668 24.3747 9.49089 24.3274C9.60509 24.2801 9.7027 24.2 9.77138 24.0972C9.84005 23.9945 9.87671 23.8736 9.87671 23.75C9.87671 23.5842 9.81086 23.4253 9.69365 23.3081C9.57644 23.1908 9.41747 23.125 9.25171 23.125V23.125Z" stroke="#40A3FF" stroke-width="2.5" stroke-linecap="round" stroke-linejoin="round"/>
<path d="M25.5 16.25H9.25171C7.26259 16.25 5.35493 15.4598 3.94841 14.0533C2.54189 12.6468 1.75171 10.7391 1.75171 8.75C1.75171 6.76088 2.54189 4.85322 3.94841 3.4467C5.35493 2.04018 7.26259 1.25 9.25171 1.25H29.2517C34.995 1.25 39.23 7.70667 35.0967 13.75" stroke="#40A3FF" stroke-width="2.5" stroke-linecap="round" stroke-linejoin="round"/>
<path d="M19.2517 31.25H9.25171C7.26259 31.25 5.35493 30.4598 3.94841 29.0533C2.54189 27.6468 1.75171 25.7391 1.75171 23.75C1.75171 21.7609 2.54189 19.8532 3.94841 18.4467C5.35493 17.0402 7.26259 16.25 9.25171 16.25H25.5" stroke="#40A3FF" stroke-width="2.5" stroke-linecap="round" stroke-linejoin="round"/>
<path d="M18.0017 8.75H29.2517" stroke="#40A3FF" stroke-width="2.5" stroke-linecap="round" stroke-linejoin="round"/>
<path d="M18.0017 23.75H20.5017" stroke="#40A3FF" stroke-width="2.5" stroke-linecap="round" stroke-linejoin="round"/>
<path d="M36.7517 26.25H26.7517C25.371 26.25 24.2517 27.3693 24.2517 28.75V36.25C24.2517 37.6307 25.371 38.75 26.7517 38.75H36.7517C38.1324 38.75 39.2517 37.6307 39.2517 36.25V28.75C39.2517 27.3693 38.1324 26.25 36.7517 26.25Z" stroke="#40A3FF" stroke-width="2.5" stroke-linecap="round" stroke-linejoin="round"/>
<path d="M31.7517 18.75C30.4256 18.75 29.1539 19.2768 28.2162 20.2145C27.2785 21.1521 26.7517 22.4239 26.7517 23.75V26.25H36.7517V23.75C36.7517 22.4239 36.2249 21.1521 35.2872 20.2145C34.3496 19.2768 33.0778 18.75 31.7517 18.75Z" stroke="#40A3FF" stroke-width="2.5" stroke-linecap="round" stroke-linejoin="round"/>
<path d="M31.7517 31.9219C31.6281 31.9219 31.5073 31.9585 31.4045 32.0272C31.3017 32.0959 31.2216 32.1935 31.1743 32.3077C31.127 32.4219 31.1146 32.5476 31.1387 32.6688C31.1628 32.79 31.2224 32.9014 31.3098 32.9888C31.3972 33.0762 31.5085 33.1358 31.6298 33.1599C31.751 33.184 31.8767 33.1716 31.9909 33.1243C32.1051 33.077 32.2027 32.9969 32.2714 32.8941C32.3401 32.7913 32.3767 32.6705 32.3767 32.5469C32.3767 32.3811 32.3109 32.2221 32.1937 32.1049C32.0764 31.9877 31.9175 31.9219 31.7517 31.9219V31.9219Z" stroke="#40A3FF" stroke-width="2.5" stroke-linecap="round" stroke-linejoin="round"/>
</svg>
