<svg width="26" height="22" viewBox="0 0 26 22" fill="none" xmlns="http://www.w3.org/2000/svg">
<path d="M1.44444 12.2222H10.1111C10.9056 12.2222 11.5556 11.6722 11.5556 11V1.22222C11.5556 0.55 10.9056 0 10.1111 0H1.44444C0.65 0 0 0.55 0 1.22222V11C0 11.6722 0.65 12.2222 1.44444 12.2222ZM1.44444 22H10.1111C10.9056 22 11.5556 21.45 11.5556 20.7778V15.8889C11.5556 15.2167 10.9056 14.6667 10.1111 14.6667H1.44444C0.65 14.6667 0 15.2167 0 15.8889V20.7778C0 21.45 0.65 22 1.44444 22ZM15.8889 22H24.5556C25.35 22 26 21.45 26 20.7778V11C26 10.3278 25.35 9.77778 24.5556 9.77778H15.8889C15.0944 9.77778 14.4444 10.3278 14.4444 11V20.7778C14.4444 21.45 15.0944 22 15.8889 22ZM14.4444 1.22222V6.11111C14.4444 6.78333 15.0944 7.33333 15.8889 7.33333H24.5556C25.35 7.33333 26 6.78333 26 6.11111V1.22222C26 0.55 25.35 0 24.5556 0H15.8889C15.0944 0 14.4444 0.55 14.4444 1.22222Z" fill="url(#paint0_linear_26_60)"/>
<defs>
<linearGradient id="paint0_linear_26_60" x1="13" y1="0" x2="13" y2="22" gradientUnits="userSpaceOnUse">
<stop stop-color="#310303"/>
<stop offset="1" stop-color="#310303" stop-opacity="0"/>
</linearGradient>
</defs>
</svg>
