<svg width="26" height="30" viewBox="0 0 26 30" fill="none" xmlns="http://www.w3.org/2000/svg">
<rect width="26" height="30" fill="url(#paint0_linear_26_71)"/>
<path d="M17.0624 15C16.0184 15 15.0088 14.4621 14.2187 13.4859C13.4504 12.5338 12.9812 11.2641 12.8984 9.91172C12.81 8.46914 13.1914 7.14258 13.9719 6.17578C14.7524 5.20898 15.8437 4.6875 17.0624 4.6875C18.2726 4.6875 19.3669 5.21836 20.1449 6.18281C20.9305 7.15664 21.3128 8.48086 21.2245 9.91113C21.1397 11.2652 20.671 12.5344 19.9042 13.4854C19.116 14.4621 18.107 15 17.0624 15ZM23.7569 25.3125H10.3685C10.1532 25.3138 9.94055 25.2582 9.74687 25.1498C9.55319 25.0414 9.38364 24.8832 9.25127 24.6873C9.11086 24.475 9.0139 24.2287 8.96764 23.9671C8.92138 23.7054 8.92703 23.435 8.98416 23.1762C9.41174 21.1951 10.471 19.5521 12.0473 18.4254C13.4463 17.4258 15.2272 16.875 17.0624 16.875C18.9337 16.875 20.6679 17.4023 22.0751 18.4014C23.6549 19.5223 24.7157 21.1746 25.1412 23.1797C25.1977 23.4387 25.2027 23.7091 25.1559 23.9706C25.1091 24.2322 25.0118 24.4782 24.8711 24.6902C24.7388 24.8852 24.5697 25.0426 24.3766 25.1505C24.1834 25.2584 23.9715 25.3138 23.7569 25.3125ZM7.46479 15.2344C5.67779 15.2344 4.10662 13.3172 3.96088 10.9611C3.88877 9.7541 4.21479 8.63789 4.87494 7.81934C5.52799 7.00898 6.44916 6.5625 7.46479 6.5625C8.48041 6.5625 9.39447 7.01133 10.0511 7.82637C10.7163 8.65137 11.0413 9.76523 10.9651 10.9623C10.8194 13.3178 9.24873 15.2344 7.46479 15.2344ZM10.7991 17.0771C9.90584 16.5732 8.7465 16.3213 7.46529 16.3213C5.96928 16.3213 4.51643 16.7713 3.37385 17.5881C2.07842 18.5156 1.20701 19.8662 0.855098 21.4969C0.803599 21.7314 0.798728 21.9764 0.84085 22.2134C0.882972 22.4504 0.970997 22.6734 1.09834 22.8656C1.21917 23.0446 1.37397 23.1892 1.55084 23.2884C1.7277 23.3875 1.92191 23.4385 2.11854 23.4375H7.75525C7.85039 23.4375 7.94251 23.3989 8.01554 23.3286C8.08858 23.2582 8.1379 23.1605 8.1549 23.0525C8.16049 23.0156 8.1676 22.9787 8.17572 22.9424C8.60635 20.9467 9.61537 19.2604 11.1063 18.0311C11.1611 17.9854 11.2053 17.9248 11.2346 17.8545C11.264 17.7843 11.2777 17.7067 11.2746 17.6288C11.2714 17.5509 11.2514 17.4751 11.2164 17.4083C11.1815 17.3416 11.1326 17.286 11.0743 17.2465C10.9946 17.1926 10.9032 17.1357 10.7991 17.0771Z" fill="black"/>
<defs>
<linearGradient id="paint0_linear_26_71" x1="13" y1="0" x2="13" y2="30" gradientUnits="userSpaceOnUse">
<stop stop-color="#3F0808"/>
<stop offset="1" stop-color="white" stop-opacity="0"/>
</linearGradient>
</defs>
</svg>
