<svg width="26" height="26" viewBox="0 0 26 26" fill="none" xmlns="http://www.w3.org/2000/svg">
<g clip-path="url(#clip0_26_80)">
<rect width="26" height="26" fill="url(#paint0_linear_26_80)"/>
<mask id="mask0_26_80" style="mask-type:luminance" maskUnits="userSpaceOnUse" x="0" y="0" width="26" height="26">
<path d="M0 0H26V26H0V0Z" fill="white"/>
<path fill-rule="evenodd" clip-rule="evenodd" d="M18.0261 10.2321C18.127 10.1479 18.2435 10.0845 18.3689 10.0453C18.4944 10.0062 18.6263 9.99221 18.7571 10.0041C18.888 10.016 19.0152 10.0535 19.1315 10.1146C19.2479 10.1757 19.351 10.2591 19.4351 10.3601L21.5181 12.8601C21.6804 13.0646 21.7562 13.3244 21.7295 13.5841C21.7027 13.8438 21.5755 14.0827 21.3749 14.2499C21.1744 14.417 20.9164 14.4991 20.6562 14.4786C20.3959 14.458 20.154 14.3366 19.9821 14.1401L17.8981 11.6401C17.7284 11.4364 17.6466 11.1736 17.6706 10.9096C17.6946 10.6456 17.8225 10.4019 18.0261 10.2321Z" fill="black"/>
<path fill-rule="evenodd" clip-rule="evenodd" d="M18.0261 16.7679C17.8225 16.5981 17.6946 16.3544 17.6706 16.0904C17.6466 15.8264 17.7284 15.5636 17.8981 15.3599L19.9821 12.8599C20.065 12.7554 20.1679 12.6686 20.2848 12.6045C20.4018 12.5404 20.5303 12.5004 20.663 12.4867C20.7956 12.473 20.9297 12.486 21.0572 12.5249C21.1847 12.5638 21.3032 12.6279 21.4056 12.7132C21.5081 12.7986 21.5924 12.9036 21.6537 13.022C21.7149 13.1404 21.7519 13.2699 21.7624 13.4029C21.7728 13.5358 21.7566 13.6695 21.7147 13.7961C21.6727 13.9226 21.6059 14.0395 21.5181 14.1399L19.4351 16.6399C19.351 16.7408 19.2479 16.8243 19.1315 16.8853C19.0152 16.9464 18.888 16.984 18.7571 16.9959C18.6263 17.0078 18.4944 16.9937 18.3689 16.9546C18.2435 16.9155 18.127 16.852 18.0261 16.7679Z" fill="black"/>
<path fill-rule="evenodd" clip-rule="evenodd" d="M20.5 13.5C20.5 13.7652 20.3946 14.0196 20.2071 14.2071C20.0196 14.3946 19.7652 14.5 19.5 14.5H13C12.7348 14.5 12.4804 14.3946 12.2929 14.2071C12.1054 14.0196 12 13.7652 12 13.5C12 13.2348 12.1054 12.9804 12.2929 12.7929C12.4804 12.6054 12.7348 12.5 13 12.5H19.5C19.7652 12.5 20.0196 12.6054 20.2071 12.7929C20.3946 12.9804 20.5 13.2348 20.5 13.5ZM6 6.5C6 6.23478 6.10536 5.98043 6.29289 5.79289C6.48043 5.60536 6.73478 5.5 7 5.5H16C16.2652 5.5 16.5196 5.60536 16.7071 5.79289C16.8946 5.98043 17 6.23478 17 6.5C17 6.76522 16.8946 7.01957 16.7071 7.20711C16.5196 7.39464 16.2652 7.5 16 7.5H7C6.73478 7.5 6.48043 7.39464 6.29289 7.20711C6.10536 7.01957 6 6.76522 6 6.5ZM6 20.5C6 20.2348 6.10536 19.9804 6.29289 19.7929C6.48043 19.6054 6.73478 19.5 7 19.5H16C16.2652 19.5 16.5196 19.6054 16.7071 19.7929C16.8946 19.9804 17 20.2348 17 20.5C17 20.7652 16.8946 21.0196 16.7071 21.2071C16.5196 21.3946 16.2652 21.5 16 21.5H7C6.73478 21.5 6.48043 21.3946 6.29289 21.2071C6.10536 21.0196 6 20.7652 6 20.5Z" fill="black"/>
<path fill-rule="evenodd" clip-rule="evenodd" d="M16 5.5C16.2652 5.5 16.5196 5.60536 16.7071 5.79289C16.8946 5.98043 17 6.23478 17 6.5V10.5C17 10.7652 16.8946 11.0196 16.7071 11.2071C16.5196 11.3946 16.2652 11.5 16 11.5C15.7348 11.5 15.4804 11.3946 15.2929 11.2071C15.1054 11.0196 15 10.7652 15 10.5V6.5C15 6.23478 15.1054 5.98043 15.2929 5.79289C15.4804 5.60536 15.7348 5.5 16 5.5ZM16 15.5C16.2652 15.5 16.5196 15.6054 16.7071 15.7929C16.8946 15.9804 17 16.2348 17 16.5V20.5C17 20.7652 16.8946 21.0196 16.7071 21.2071C16.5196 21.3946 16.2652 21.5 16 21.5C15.7348 21.5 15.4804 21.3946 15.2929 21.2071C15.1054 21.0196 15 20.7652 15 20.5V16.5C15 16.2348 15.1054 15.9804 15.2929 15.7929C15.4804 15.6054 15.7348 15.5 16 15.5ZM7 5.5C7.26522 5.5 7.51957 5.60536 7.70711 5.79289C7.89464 5.98043 8 6.23478 8 6.5V20.5C8 20.7652 7.89464 21.0196 7.70711 21.2071C7.51957 21.3946 7.26522 21.5 7 21.5C6.73478 21.5 6.48043 21.3946 6.29289 21.2071C6.10536 21.0196 6 20.7652 6 20.5V6.5C6 6.23478 6.10536 5.98043 6.29289 5.79289C6.48043 5.60536 6.73478 5.5 7 5.5Z" fill="black"/>
</mask>
<g mask="url(#mask0_26_80)">
<path d="M13 26C20.1797 26 26 20.1797 26 13C26 5.8203 20.1797 0 13 0C5.8203 0 0 5.8203 0 13C0 20.1797 5.8203 26 13 26Z" fill="black"/>
</g>
</g>
<defs>
<linearGradient id="paint0_linear_26_80" x1="13" y1="0" x2="13" y2="26" gradientUnits="userSpaceOnUse">
<stop stop-color="#510101"/>
<stop offset="1" stop-color="white" stop-opacity="0"/>
</linearGradient>
<clipPath id="clip0_26_80">
<rect width="26" height="26" fill="white"/>
</clipPath>
</defs>
</svg>
